PathFileType	3	(X/Y/Z)	random_1__fused_aligned.trc
DataRate	CameraRate	NumFrames	NumMarkers	Units	OrigDataRate	OrigDataStartFrame	OrigNumFrames
100.0	100.0	12	19	mm	100.0	1335	1870
Frame#	Time	pelvis			neck			head			hip_left			hip_right			knee_left			knee_right			ankle_left			ankle_right			heel_left			heel_right			toe_left			toe_right			shoulder_left			shoulder_right			elbow_left			elbow_right			wrist_left			wrist_right			
		X1	Y1	Z1	X2	Y2	Z2	X3	Y3	Z3	X4	Y4	Z4	X5	Y5	Z5	X6	Y6	Z6	X7	Y7	Z7	X8	Y8	Z8	X9	Y9	Z9	X10	Y10	Z10	X11	Y11	Z11	X12	Y12	Z12	X13	Y13	Z13	X14	Y14	Z14	X15	Y15	Z15	X16	Y16	Z16	X17	Y17	Z17	X18	Y18	Z18	X19	Y19	Z19	
1335	13.34000	100.011155	941.575672	143.077780	103.692867	1521.352685	149.964561	187.105314	1669.893423	106.046460	95.897069	938.018224	67.235865	104.125375	945.133120	218.919582	198.748443	519.223580	-0.962941	181.139395	520.892646	288.313102	112.157908	118.825269	-50.102703	46.666003	132.311632	324.932537	75.100502	72.572206	-55.717876	4.918939	88.809584	326.444093	292.627780	54.965285	-24.671163	223.698310	61.818629	325.557458	24.395841	1505.200559	2.149515	82.713765	1461.745043	319.999967	-14.682534	1453.421114	-266.874339	127.442114	1348.596069	577.756316	98.518529	1511.258380	-462.064519	306.415580	1351.967918	767.767071
1336	13.35000	99.494030	941.502372	146.598220	103.699370	1521.117072	152.563226	186.351271	1669.675556	107.359811	94.640159	937.764965	70.823524	104.348064	945.239782	222.372779	197.260026	519.513710	0.578484	179.128455	520.525647	290.020177	110.586838	119.323206	-49.697579	45.017248	131.918563	327.338792	73.470825	73.146429	-55.304101	3.264864	88.385978	329.225534	290.890986	55.014127	-25.264251	222.121082	61.619018	325.934630	22.667296	1504.830178	6.080499	83.851601	1462.171549	322.387352	-19.752629	1457.994139	-263.731357	128.603535	1353.053337	582.730839	86.474883	1519.021271	-465.532123	304.598845	1357.993559	778.229657
1337	13.36000	98.976905	941.429072	150.118660	103.705873	1520.881459	155.161892	185.597228	1669.457690	108.673163	93.383249	937.511706	74.411183	104.570752	945.346445	225.825977	195.771608	519.803839	2.119910	177.117515	520.158647	291.727253	109.015768	119.821144	-49.292455	43.368493	131.525494	329.745048	71.841149	73.720653	-54.890327	1.610789	87.962372	332.006976	289.154193	55.062969	-25.857340	220.543854	61.419407	326.311803	20.938751	1504.459796	10.011483	84.989438	1462.598055	324.774738	-24.822724	1462.567163	-260.588375	129.764957	1357.510606	587.705362	74.431236	1526.784162	-468.999728	302.782110	1364.019199	788.692243
1338	13.37000	97.942568	941.325535	153.670898	102.718331	1520.576907	158.259802	184.142091	1669.053736	110.923392	91.684876	937.255937	78.036153	104.200414	945.395139	229.305516	193.730160	520.052359	3.706061	174.799009	519.808129	293.288472	107.182211	120.180094	-48.543871	42.221422	130.825967	330.995051	69.986863	74.126477	-54.042161	0.579751	87.153531	333.363156	287.230913	55.045300	-26.358847	219.533185	61.211556	326.433237	18.622927	1504.166239	14.369396	85.094515	1462.475279	327.551281	-29.765852	1465.583511	-256.181224	130.590715	1360.151397	591.550528	62.621843	1531.756830	-468.745467	301.495548	1368.185930	796.006299
1339	13.38000	96.908232	941.221999	157.223136	101.730790	1520.272355	161.357713	182.686955	1668.649782	113.173621	89.986504	937.000169	81.661123	103.830076	945.443834	232.785054	191.688711	520.300879	5.292213	172.480503	519.457611	294.849692	105.348654	120.539045	-47.795287	41.074351	130.126440	332.245055	68.132578	74.532301	-53.193994	-0.451286	86.344689	334.719337	285.307632	55.027630	-26.860355	218.522516	61.003706	326.554672	16.307104	1503.872683	18.727310	85.199592	1462.352503	330.327823	-34.708980	1468.599859	-251.774073	131.416474	1362.792188	595.395693	50.812450	1536.729499	-468.491207	300.208986	1372.352661	803.320354
1340	13.39000	95.873896	941.118463	160.775375	100.743248	1519.967802	164.455624	181.231819	1668.245828	115.423851	88.288132	936.744400	85.286094	103.459739	945.492528	236.264593	189.647263	520.549399	6.878365	170.161997	519.107093	296.410911	103.515096	120.897995	-47.046703	39.927280	129.426914	333.495059	66.278293	74.938125	-52.345828	-1.482324	85.535848	336.075518	283.384352	55.009961	-27.361862	217.511847	60.795855	326.676106	13.991280	1503.579126	23.085224	85.304669	1462.229726	333.104366	-39.652108	1471.616206	-247.366921	132.242232	1365.432980	599.240858	39.003057	1541.702167	-468.236946	298.922424	1376.519392	810.634409
1341	13.40000	94.839559	941.014926	164.327613	99.755706	1519.663250	167.553535	179.776682	1667.841875	117.674080	86.589759	936.488631	88.911064	103.089401	945.541222	239.744132	187.605814	520.797919	8.464517	167.843491	518.756576	297.972131	101.681539	121.256946	-46.298119	38.780209	128.727387	334.745063	64.424007	75.343949	-51.497661	-2.513362	84.727006	337.431698	281.461072	54.992292	-27.863370	216.501178	60.588004	326.797541	11.675457	1503.285569	27.443137	85.409745	1462.106950	335.880909	-44.595236	1474.632554	-242.959770	133.067990	1368.073771	603.086023	27.193664	1546.674835	-467.982686	297.635861	1380.686123	817.948465
1342	13.41000	93.805223	940.911390	167.879851	98.768165	1519.358698	170.651446	178.321546	1667.437921	119.924309	84.891387	936.232862	92.536034	102.719063	945.589917	243.223670	185.564366	521.046439	10.050669	165.524985	518.406058	299.533350	99.847981	121.615896	-45.549535	37.633138	128.027860	335.995067	62.569722	75.749773	-50.649495	-3.544400	83.918165	338.787879	279.537791	54.974623	-28.364877	215.490509	60.380153	326.918976	9.359633	1502.992012	31.801051	85.514822	1461.984173	338.657452	-49.538363	1477.648902	-238.552619	133.893749	1370.714562	606.931188	15.384271	1551.647503	-467.728425	296.349299	1384.852854	825.262520
1343	13.42000	92.770886	940.807854	171.432089	97.780623	1519.054146	173.749357	176.866410	1667.033967	122.174538	83.193015	935.977094	96.161004	102.348725	945.638611	246.703209	183.522917	521.294960	11.636821	163.206479	518.055540	301.094570	98.014424	121.974847	-44.800950	36.486067	127.328333	337.245070	60.715437	76.155597	-49.801328	-4.575438	83.109323	340.144059	277.614511	54.956954	-28.866385	214.479840	60.172302	327.040410	7.043810	1502.698455	36.158964	85.619899	1461.861397	341.433995	-54.481491	1480.665249	-234.145467	134.719507	1373.355353	610.776353	3.574877	1556.620171	-467.474164	295.062737	1389.019585	832.576575
1344	13.43000	91.736550	940.704317	174.984327	96.793081	1518.749594	176.847268	175.411273	1666.630014	124.424767	81.494642	935.721325	99.785974	101.978387	945.687305	250.182748	181.481469	521.543480	13.222973	160.887973	517.705022	302.655789	96.180866	122.333797	-44.052366	35.338996	126.628806	338.495074	58.861151	76.561421	-48.953162	-5.606476	82.300482	341.500240	275.691231	54.939285	-29.367892	213.469171	59.964451	327.161845	4.727986	1502.404898	40.516878	85.724976	1461.738620	344.210538	-59.424619	1483.681597	-229.738316	135.545265	1375.996145	614.621519	-8.234516	1561.592839	-467.219904	293.776174	1393.186317	839.890631
1345	13.44000	90.702214	940.600781	178.536566	95.805540	1518.445042	179.945179	173.956137	1666.226060	126.674997	79.796270	935.465556	103.410945	101.608050	945.735999	253.662287	179.440020	521.792000	14.809125	158.569467	517.354504	304.217009	94.347309	122.692748	-43.303782	34.191925	125.929280	339.745078	57.006866	76.967245	-48.104995	-6.637513	81.491640	342.856421	273.767950	54.921616	-29.869400	212.458502	59.756600	327.283279	2.412163	1502.111341	44.874791	85.830053	1461.615844	346.987081	-64.367747	1486.697945	-225.331164	136.371023	1378.636936	618.466684	-20.043909	1566.565508	-466.965643	292.489612	1397.353048	847.204686
1346	13.45000	89.667877	940.497245	182.088804	94.817998	1518.140489	183.043090	172.501001	1665.822106	128.925226	78.097898	935.209787	107.035915	101.237712	945.784694	257.141825	177.398572	522.040520	16.395277	156.250962	517.003986	305.778228	92.513751	123.051698	-42.555198	33.044854	125.229753	340.995082	55.152581	77.373069	-47.256829	-7.668551	80.682799	344.212601	271.844670	54.903947	-30.370907	211.447833	59.548749	327.404714	0.096339	1501.817784	49.232705	85.935130	1461.493068	349.763623	-69.310875	1489.714292	-220.924013	137.196782	1381.277727	622.311849	-31.853302	1571.538176	-466.711383	291.203050	1401.519779	854.518741
